<?xml version="1.0" standalone="no"?>
<!DOCTYPE svg PUBLIC "-//W3C//DTD SVG 20010904//EN"
 "http://www.w3.org/TR/2001/REC-SVG-20010904/DTD/svg10.dtd">
<svg version="1.0" xmlns="http://www.w3.org/2000/svg"
 width="700.000000pt" height="700.000000pt" viewBox="0 0 700.000000 700.000000"
 preserveAspectRatio="xMidYMid meet">
<metadata>
Created by potrace 1.14, written by Peter Selinger 2001-2017
</metadata>
<g transform="translate(0.000000,700.000000) scale(0.100000,-0.100000)"
fill="#000000" stroke="none">
<path d="M5630 6969 c-41 -17 -151 -60 -245 -96 -93 -36 -215 -83 -270 -105
-55 -21 -138 -54 -185 -72 -47 -18 -326 -126 -620 -241 -294 -114 -636 -247
-760 -295 -124 -48 -378 -147 -565 -219 -187 -73 -419 -163 -515 -201 -96 -37
-218 -85 -270 -105 -52 -20 -142 -55 -200 -77 -58 -22 -114 -44 -125 -49 -11
-5 -420 -164 -910 -354 -521 -203 -900 -355 -913 -368 -37 -34 -55 -76 -49
-116 3 -23 61 -129 159 -291 85 -140 170 -280 188 -310 18 -30 44 -72 58 -94
l26 -38 2 -1907 c0 -1048 2 -1911 3 -1918 0 -7 15 -28 31 -47 64 -72 -223 -66
3270 -64 l3145 3 42 28 c80 55 73 -132 73 2016 l0 1920 -32 37 c-18 21 -51 45
-73 55 -38 18 -150 19 -2720 19 -1912 1 -2673 4 -2655 12 14 6 44 19 67 29 24
11 46 19 49 19 4 0 66 23 138 51 305 120 409 160 556 217 85 33 331 129 545
212 215 84 417 163 450 175 113 42 560 216 580 225 11 5 133 53 270 106 307
118 498 192 720 279 94 36 216 84 273 106 57 22 194 75 305 118 111 44 337
131 502 195 349 135 375 148 405 189 48 64 43 84 -79 286 -61 101 -111 188
-111 192 0 5 -4 9 -8 9 -5 0 -16 15 -25 33 -42 81 -225 378 -251 405 -58 65
-161 76 -276 31z m77 -396 c29 -51 163 -271 210 -345 l42 -66 -107 -42 c-59
-23 -120 -48 -137 -55 -16 -7 -109 -43 -205 -80 -96 -36 -184 -71 -195 -76
-46 -20 -128 -50 -131 -47 -2 3 62 159 105 253 31 70 66 149 126 291 64 152
71 163 104 176 20 9 59 25 86 36 56 24 64 20 102 -45z m-1147 -367 c0 -3 -13
-34 -30 -69 -16 -36 -30 -68 -30 -70 0 -3 -13 -34 -29 -69 -16 -35 -48 -108
-71 -163 -23 -55 -50 -118 -60 -140 -10 -22 -25 -58 -34 -80 -39 -95 -50 -114
-70 -124 -40 -20 -848 -332 -852 -328 -3 2 128 310 255 602 10 22 23 54 30 72
14 35 -40 11 571 250 118 46 235 92 260 102 47 20 60 24 60 17z m-1906 -937
c-52 -123 -104 -242 -114 -264 -9 -22 -34 -78 -54 -125 l-36 -85 -439 -171
-438 -170 14 35 c8 20 18 45 23 56 47 102 78 175 73 175 -3 0 -1 6 5 13 5 6
49 104 97 217 48 113 91 209 95 213 4 5 117 51 251 103 134 52 253 99 264 104
82 36 351 135 353 130 1 -4 -41 -108 -94 -231z m-1830 -765 c-69 -159 -127
-290 -128 -292 -2 -1 -57 88 -124 198 l-121 199 32 15 c18 9 126 52 241 96
115 44 212 83 215 86 22 22 -5 -50 -115 -302z m2544 -733 c7 -1 -69 -67 -170
-147 -101 -80 -196 -157 -213 -171 -16 -14 -84 -68 -150 -120 l-121 -96 -478
1 c-262 0 -479 2 -482 4 -2 3 58 54 134 114 75 59 139 111 142 114 3 3 70 57
150 120 80 63 147 117 150 121 3 3 23 19 46 35 l40 29 470 -2 c258 -1 475 -2
482 -2z m2012 -2 c0 -5 -592 -483 -642 -519 -18 -12 -95 -14 -499 -15 -264 0
-479 3 -479 6 0 7 27 30 215 180 116 93 134 107 295 237 74 60 141 111 148
113 19 6 962 5 962 -2z m-4025 -18 c-73 -69 -535 -428 -536 -416 0 8 -1 103
-1 210 0 107 1 202 1 210 1 13 39 15 278 15 271 0 277 0 258 -19z m5256 12 c7
-49 2 -516 -6 -521 -13 -8 -836 -9 -841 -1 -2 4 9 16 24 27 15 12 162 129 327
262 l300 240 97 0 c54 0 98 -3 99 -7z m9 -2146 l0 -1312 -2900 0 c-2571 0
-2900 2 -2901 15 -3 58 -3 2603 0 2606 2 2 1309 4 2903 4 l2898 0 0 -1313z"/>
<path d="M3534 2494 c-546 -74 -941 -461 -919 -904 5 -111 25 -185 80 -295 98
-198 279 -358 515 -456 41 -17 79 -32 85 -34 5 -1 30 -7 55 -14 25 -7 54 -15
65 -17 26 -5 64 -13 95 -20 56 -13 327 -12 415 2 188 30 401 116 535 216 76
57 178 162 223 230 87 131 127 252 131 396 3 81 0 112 -20 208 -9 48 -66 170
-108 232 -160 239 -463 415 -791 457 -89 12 -268 11 -361 -1z m306 -88 c310
-29 596 -189 745 -416 52 -80 72 -124 95 -217 96 -385 -186 -773 -651 -897
-118 -31 -169 -38 -297 -41 -90 -2 -127 1 -242 19 -139 22 -320 97 -430 179
-221 164 -335 370 -331 597 5 283 184 528 492 675 191 90 388 122 619 101z"/>
<path d="M3688 2355 c-2 -1 -37 -5 -78 -8 -167 -13 -356 -78 -487 -168 -23
-16 -53 -29 -67 -29 -19 0 -26 -5 -26 -20 0 -11 -17 -39 -38 -63 -90 -100
-129 -167 -163 -277 -31 -101 -30 -248 1 -335 11 -33 24 -69 27 -80 3 -11 25
-49 49 -85 131 -200 354 -335 634 -383 76 -13 275 -15 340 -2 196 36 326 89
457 186 29 22 61 39 72 39 14 0 19 5 15 15 -3 8 8 28 25 47 231 244 232 611 2
861 -14 16 -27 40 -27 55 -1 15 -2 30 -3 35 -1 4 -18 7 -39 7 -25 0 -50 9 -73
26 -108 81 -318 156 -474 170 -88 7 -145 11 -147 9z"/>
</g>
</svg>
