<svg width="342" height="513" viewBox="0 0 342 513" fill="none" xmlns="http://www.w3.org/2000/svg">
<rect width="342" height="513" fill="white"/>
<path d="M171.091 257.477C116.454 257.477 72 219.914 72 173.739C72 127.563 116.454 90 171.091 90C225.728 90 270.182 127.563 270.182 173.739C270.182 219.914 225.728 257.477 171.091 257.477ZM171.091 96.4414C120.657 96.4414 79.6224 131.119 79.6224 173.739C79.6224 216.359 120.657 251.036 171.091 251.036C221.524 251.036 262.559 216.359 262.559 173.739C262.559 131.119 221.524 96.4414 171.091 96.4414Z" fill="url(#paint0_linear)"/>
<path d="M171.091 238.153C129.061 238.153 94.8672 209.257 94.8672 173.739C94.8672 159.616 100.169 146.215 110.192 134.984L112.829 132.027L220.446 222.968L216.951 225.196C203.661 233.673 187.807 238.153 171.091 238.153ZM113.74 141.902C106.366 151.348 102.49 162.276 102.49 173.739C102.49 205.705 133.265 231.712 171.091 231.712C184.655 231.712 197.59 228.433 208.761 222.204L113.74 141.902Z" fill="url(#paint1_linear)"/>
<path d="M231.023 213.643L123.868 123.086L127.588 120.883C140.374 113.321 155.417 109.324 171.089 109.324C213.119 109.324 247.312 138.221 247.312 173.739C247.312 186.979 242.579 199.694 233.627 210.497L231.023 213.643ZM135.793 124.053L229.88 203.566C236.31 194.59 239.69 184.354 239.69 173.739C239.69 141.773 208.915 115.766 171.089 115.766C158.527 115.766 146.415 118.622 135.793 124.053Z" fill="url(#paint2_linear)"/>
<path d="M180.505 218.12C177.456 218.604 174.292 218.829 171.091 218.829C141.631 218.829 117.734 198.635 117.734 173.739C117.734 171.033 118.001 168.36 118.573 165.784L180.505 218.12Z" fill="url(#paint3_linear)"/>
<path d="M224.445 173.739C224.445 176.444 224.178 179.117 223.607 181.694L161.675 129.357C164.724 128.874 167.887 128.648 171.088 128.648C200.549 128.648 224.445 148.842 224.445 173.739Z" fill="url(#paint4_linear)"/>
<path d="M36.316 339.6C38.3107 339.6 39.88 340.077 41.024 341.03C42.168 341.983 42.74 343.296 42.74 344.968C42.74 346.64 42.168 347.953 41.024 348.906C39.88 349.859 38.3107 350.336 36.316 350.336H32.51V355H30.31V339.6H36.316ZM36.25 348.422C37.6433 348.422 38.7067 348.129 39.44 347.542C40.1733 346.941 40.54 346.083 40.54 344.968C40.54 343.853 40.1733 343.003 39.44 342.416C38.7067 341.815 37.6433 341.514 36.25 341.514H32.51V348.422H36.25ZM53.139 355.176C51.5843 355.176 50.1836 354.839 48.937 354.164C47.6903 353.475 46.7076 352.529 45.989 351.326C45.285 350.123 44.933 348.781 44.933 347.3C44.933 345.819 45.285 344.477 45.989 343.274C46.7076 342.071 47.6903 341.133 48.937 340.458C50.1836 339.769 51.5843 339.424 53.139 339.424C54.679 339.424 56.0723 339.769 57.319 340.458C58.5656 341.133 59.541 342.071 60.245 343.274C60.949 344.462 61.301 345.804 61.301 347.3C61.301 348.796 60.949 350.145 60.245 351.348C59.541 352.536 58.5656 353.475 57.319 354.164C56.0723 354.839 54.679 355.176 53.139 355.176ZM53.139 353.218C54.2683 353.218 55.2803 352.961 56.175 352.448C57.0843 351.935 57.7956 351.231 58.309 350.336C58.837 349.427 59.101 348.415 59.101 347.3C59.101 346.185 58.837 345.181 58.309 344.286C57.7956 343.377 57.0843 342.665 56.175 342.152C55.2803 341.639 54.2683 341.382 53.139 341.382C52.0096 341.382 50.983 341.639 50.059 342.152C49.1496 342.665 48.431 343.377 47.903 344.286C47.3896 345.181 47.133 346.185 47.133 347.3C47.133 348.415 47.3896 349.427 47.903 350.336C48.431 351.231 49.1496 351.935 50.059 352.448C50.983 352.961 52.0096 353.218 53.139 353.218ZM69.1515 355.176C67.9928 355.176 66.8708 355 65.7855 354.648C64.7148 354.281 63.8715 353.812 63.2555 353.24L64.0695 351.524C64.6562 352.052 65.4042 352.485 66.3135 352.822C67.2375 353.145 68.1835 353.306 69.1515 353.306C70.4275 353.306 71.3808 353.093 72.0115 352.668C72.6422 352.228 72.9575 351.649 72.9575 350.93C72.9575 350.402 72.7815 349.977 72.4295 349.654C72.0922 349.317 71.6668 349.06 71.1535 348.884C70.6548 348.708 69.9435 348.51 69.0195 348.29C67.8608 348.011 66.9222 347.733 66.2035 347.454C65.4995 347.175 64.8908 346.75 64.3775 346.178C63.8788 345.591 63.6295 344.807 63.6295 343.824C63.6295 343.003 63.8422 342.262 64.2675 341.602C64.7075 340.942 65.3675 340.414 66.2475 340.018C67.1275 339.622 68.2202 339.424 69.5255 339.424C70.4348 339.424 71.3295 339.541 72.2095 339.776C73.0895 340.011 73.8448 340.348 74.4755 340.788L73.7495 342.548C73.1042 342.137 72.4148 341.829 71.6815 341.624C70.9482 341.404 70.2295 341.294 69.5255 341.294C68.2788 341.294 67.3402 341.521 66.7095 341.976C66.0935 342.431 65.7855 343.017 65.7855 343.736C65.7855 344.264 65.9615 344.697 66.3135 345.034C66.6655 345.357 67.0982 345.613 67.6115 345.804C68.1395 345.98 68.8508 346.171 69.7455 346.376C70.9042 346.655 71.8355 346.933 72.5395 347.212C73.2435 347.491 73.8448 347.916 74.3435 348.488C74.8568 349.06 75.1135 349.83 75.1135 350.798C75.1135 351.605 74.8935 352.345 74.4535 353.02C74.0135 353.68 73.3462 354.208 72.4515 354.604C71.5568 354.985 70.4568 355.176 69.1515 355.176ZM81.1707 341.514H75.8907V339.6H88.6287V341.514H83.3487V355H81.1707V341.514ZM102.201 353.086V355H91.0248V339.6H101.893V341.514H93.2248V346.244H100.947V348.114H93.2248V353.086H102.201ZM116.059 355L112.737 350.27C112.326 350.299 112.004 350.314 111.769 350.314H107.963V355H105.763V339.6H111.769C113.764 339.6 115.333 340.077 116.477 341.03C117.621 341.983 118.193 343.296 118.193 344.968C118.193 346.156 117.9 347.168 117.313 348.004C116.726 348.84 115.89 349.449 114.805 349.83L118.457 355H116.059ZM111.703 348.444C113.096 348.444 114.16 348.143 114.893 347.542C115.626 346.941 115.993 346.083 115.993 344.968C115.993 343.853 115.626 343.003 114.893 342.416C114.16 341.815 113.096 341.514 111.703 341.514H107.963V348.444H111.703ZM140.9 339.6V355H139.096L129.856 343.516V355H127.656V339.6H129.46L138.7 351.084V339.6H140.9ZM152.461 355.176C150.907 355.176 149.506 354.839 148.259 354.164C147.013 353.475 146.03 352.529 145.311 351.326C144.607 350.123 144.255 348.781 144.255 347.3C144.255 345.819 144.607 344.477 145.311 343.274C146.03 342.071 147.013 341.133 148.259 340.458C149.506 339.769 150.907 339.424 152.461 339.424C154.001 339.424 155.395 339.769 156.641 340.458C157.888 341.133 158.863 342.071 159.567 343.274C160.271 344.462 160.623 345.804 160.623 347.3C160.623 348.796 160.271 350.145 159.567 351.348C158.863 352.536 157.888 353.475 156.641 354.164C155.395 354.839 154.001 355.176 152.461 355.176ZM152.461 353.218C153.591 353.218 154.603 352.961 155.497 352.448C156.407 351.935 157.118 351.231 157.631 350.336C158.159 349.427 158.423 348.415 158.423 347.3C158.423 346.185 158.159 345.181 157.631 344.286C157.118 343.377 156.407 342.665 155.497 342.152C154.603 341.639 153.591 341.382 152.461 341.382C151.332 341.382 150.305 341.639 149.381 342.152C148.472 342.665 147.753 343.377 147.225 344.286C146.712 345.181 146.455 346.185 146.455 347.3C146.455 348.415 146.712 349.427 147.225 350.336C147.753 351.231 148.472 351.935 149.381 352.448C150.305 352.961 151.332 353.218 152.461 353.218ZM166.829 341.514H161.549V339.6H174.287V341.514H169.007V355H166.829V341.514ZM192.403 351.15H184.219L182.525 355H180.259L187.233 339.6H189.411L196.407 355H194.097L192.403 351.15ZM191.633 349.39L188.311 341.844L184.989 349.39H191.633ZM211.264 339.6L204.51 355H202.332L195.556 339.6H197.932L203.476 352.25L209.064 339.6H211.264ZM222.546 351.15H214.362L212.668 355H210.402L217.376 339.6H219.554L226.55 355H224.24L222.546 351.15ZM221.776 349.39L218.454 341.844L215.132 349.39H221.776ZM228.847 339.6H231.047V355H228.847V339.6ZM235.658 339.6H237.858V353.086H246.196V355H235.658V339.6ZM258.597 351.15H250.413L248.719 355H246.453L253.427 339.6H255.605L262.601 355H260.291L258.597 351.15ZM257.827 349.39L254.505 341.844L251.183 349.39H257.827ZM275.26 347.014C276.155 347.263 276.859 347.718 277.372 348.378C277.885 349.023 278.142 349.845 278.142 350.842C278.142 352.177 277.636 353.203 276.624 353.922C275.627 354.641 274.167 355 272.246 355H264.898V339.6H271.806C273.566 339.6 274.923 339.952 275.876 340.656C276.844 341.36 277.328 342.335 277.328 343.582C277.328 344.389 277.137 345.085 276.756 345.672C276.389 346.259 275.891 346.706 275.26 347.014ZM267.098 341.382V346.31H271.608C272.737 346.31 273.603 346.105 274.204 345.694C274.82 345.269 275.128 344.653 275.128 343.846C275.128 343.039 274.82 342.431 274.204 342.02C273.603 341.595 272.737 341.382 271.608 341.382H267.098ZM272.158 353.218C273.405 353.218 274.343 353.013 274.974 352.602C275.605 352.191 275.92 351.546 275.92 350.666C275.92 348.95 274.666 348.092 272.158 348.092H267.098V353.218H272.158ZM281.548 339.6H283.748V353.086H292.086V355H281.548V339.6ZM305.787 353.086V355H294.611V339.6H305.479V341.514H296.811V346.244H304.533V348.114H296.811V353.086H305.787ZM308.755 339.6H311.241L310.823 350.138H309.151L308.755 339.6ZM310.009 355.132C309.598 355.132 309.254 355 308.975 354.736C308.696 354.457 308.557 354.12 308.557 353.724C308.557 353.328 308.696 352.998 308.975 352.734C309.254 352.455 309.598 352.316 310.009 352.316C310.42 352.316 310.757 352.455 311.021 352.734C311.285 352.998 311.417 353.328 311.417 353.724C311.417 354.12 311.278 354.457 310.999 354.736C310.735 355 310.405 355.132 310.009 355.132Z" fill="black"/>
<defs>
<linearGradient id="paint0_linear" x1="171.091" y1="88.3896" x2="171.091" y2="262.4" gradientUnits="userSpaceOnUse">
<stop stop-color="#1A6DFF"/>
<stop offset="1" stop-color="#C822FF"/>
</linearGradient>
<linearGradient id="paint1_linear" x1="157.657" y1="88.3898" x2="157.657" y2="262.4" gradientUnits="userSpaceOnUse">
<stop stop-color="#1A6DFF"/>
<stop offset="1" stop-color="#C822FF"/>
</linearGradient>
<linearGradient id="paint2_linear" x1="185.591" y1="88.3895" x2="185.591" y2="262.4" gradientUnits="userSpaceOnUse">
<stop stop-color="#1A6DFF"/>
<stop offset="1" stop-color="#C822FF"/>
</linearGradient>
<linearGradient id="paint3_linear" x1="149.119" y1="163.272" x2="149.119" y2="221.445" gradientUnits="userSpaceOnUse">
<stop stop-color="#6DC7FF"/>
<stop offset="1" stop-color="#E6ABFF"/>
</linearGradient>
<linearGradient id="paint4_linear" x1="193.06" y1="118.181" x2="193.06" y2="181.918" gradientUnits="userSpaceOnUse">
<stop stop-color="#6DC7FF"/>
<stop offset="1" stop-color="#E6ABFF"/>
</linearGradient>
</defs>
</svg>
